<?xml version="1.0" standalone="no"?>
<!DOCTYPE svg PUBLIC "-//W3C//DTD SVG 20010904//EN"
 "http://www.w3.org/TR/2001/REC-SVG-20010904/DTD/svg10.dtd">
<svg version="1.0" xmlns="http://www.w3.org/2000/svg"
 width="512.000000pt" height="512.000000pt" viewBox="0 0 512.000000 512.000000"
 preserveAspectRatio="xMidYMid meet">

<g transform="translate(0.000000,512.000000) scale(0.100000,-0.100000)"
fill="#000000" stroke="none">
<path d="M4214 4535 c-115 -74 -220 -147 -234 -160 l-25 -25 -5 -302 -5 -302
-645 -373 c-355 -205 -736 -425 -847 -489 l-201 -116 -61 22 c-204 75 -415
-70 -415 -285 -1 -170 134 -307 304 -309 165 -1 310 141 310 304 l0 49 834
500 c459 276 839 501 845 501 6 0 116 -47 245 -105 170 -76 245 -105 274 -105
33 0 71 21 262 144 176 113 228 152 247 182 55 92 32 119 -238 284 -121 73
-219 138 -219 144 0 55 -52 501 -60 516 -6 11 -28 29 -50 40 -73 37 -88 32
-316 -115z m146 -389 c21 -154 27 -183 48 -207 13 -16 83 -60 155 -98 193
-102 185 -86 79 -164 -49 -37 -94 -67 -100 -67 -6 0 -98 36 -204 79 l-193 80
0 242 0 242 90 57 c84 53 90 55 96 36 3 -12 17 -102 29 -200z"/>
<path d="M1945 4623 c-517 -63 -969 -280 -1326 -635 -582 -580 -769 -1408
-490 -2167 191 -519 594 -953 1100 -1186 286 -131 535 -185 858 -185 558 0
1067 212 1463 609 233 234 394 490 499 796 126 364 146 774 56 1155 -24 102
-70 248 -95 301 -31 67 -131 77 -182 19 -37 -41 -36 -68 12 -208 56 -166 71
-265 77 -497 4 -156 2 -225 -11 -315 -62 -420 -235 -769 -526 -1060 -276 -277
-613 -450 -1005 -516 -124 -22 -442 -24 -560 -5 -402 64 -757 244 -1035 523
-283 284 -458 632 -521 1038 -17 110 -17 409 0 525 118 801 714 1413 1511
1552 142 24 409 29 547 9 395 -58 750 -230 1051 -508 40 -37 87 -71 105 -76
75 -20 147 35 147 113 0 41 -5 50 -62 111 -303 325 -770 552 -1240 603 -91 10
-306 13 -373 4z"/>
<path d="M1963 3980 c-630 -52 -1163 -505 -1318 -1120 -37 -148 -49 -264 -42
-418 17 -370 157 -695 416 -966 211 -219 471 -362 781 -427 137 -29 397 -32
538 -5 598 110 1066 567 1197 1166 22 100 31 371 16 483 -20 153 -57 278 -91
312 -54 53 -143 33 -179 -41 -13 -25 -12 -37 3 -94 32 -115 37 -162 38 -325 1
-168 -13 -270 -53 -402 -96 -314 -326 -590 -619 -741 -174 -91 -322 -130 -525
-138 -630 -27 -1185 440 -1276 1074 -15 104 -6 320 16 422 50 224 155 423 310
589 409 434 1046 520 1565 212 37 -22 107 -72 156 -111 77 -60 95 -70 129 -70
76 0 133 74 113 147 -16 60 -222 219 -392 302 -180 88 -350 134 -554 151 -64
5 -121 9 -127 8 -5 0 -51 -4 -102 -8z"/>
<path d="M1989 3429 c-331 -34 -621 -250 -746 -554 -49 -121 -66 -210 -66
-350 0 -306 147 -583 399 -751 149 -99 287 -143 469 -151 261 -11 498 81 677
264 182 185 255 359 265 638 5 145 4 151 -17 178 -13 16 -34 33 -48 38 -36 14
-110 0 -140 -26 -27 -23 -27 -26 -33 -182 -5 -141 -9 -167 -36 -244 -60 -173
-178 -307 -338 -384 -113 -54 -176 -69 -295 -68 -268 1 -500 151 -609 395 -42
94 -56 162 -56 278 1 187 61 328 199 466 143 143 300 202 510 191 127 -6 211
-31 330 -97 84 -46 119 -49 167 -17 48 32 64 65 55 112 -10 50 -57 96 -157
151 -172 95 -345 132 -530 113z"/>
</g>
</svg>
